<svg width="177" height="52" viewBox="0 0 177 52" fill="none" xmlns="http://www.w3.org/2000/svg">
<path d="M1.93561 43.3194C1.93561 31.7639 1.93561 20.2362 1.93561 8.68066C1.29963 9.32264 0.635987 9.99253 0 10.6345C0 20.8503 0 31.094 0 41.3098C0.635987 42.0076 1.29963 42.6495 1.93561 43.3194Z" fill="black"/>
<path d="M8.57202 1.98175C8.57202 18.0032 8.57202 33.9968 8.57202 50.0182C9.23566 50.6881 9.87164 51.3301 10.5353 52C10.5353 34.6667 10.5353 17.3333 10.5353 0L8.57202 1.98175Z" fill="black"/>
<path d="M12.8856 5.02441C12.8856 19.2316 12.8856 33.4388 12.8856 47.646C13.5492 47.004 14.1852 46.3341 14.8488 45.6922V9.76945C16.3973 11.3325 17.9458 12.8956 19.4942 14.4308V11.6396C17.2821 9.43451 15.07 7.22946 12.8856 5.02441Z" fill="black"/>
<path d="M17.1713 18.1426C17.1713 19.0637 17.1713 20.0127 17.1713 20.9338C18.6092 22.3852 20.0471 23.8366 21.4849 25.288V43.3192C22.1486 42.6772 22.7846 42.0073 23.4482 41.3653V24.4786L17.1713 18.1426Z" fill="black"/>
<path d="M6.2218 47.6459C6.2218 33.2155 6.2218 18.785 6.2218 4.35449C5.55817 4.99647 4.92218 5.66635 4.25854 6.30833V45.6642C4.92218 46.3341 5.58582 46.9761 6.2218 47.6459Z" fill="black"/>
<path d="M45.9703 21.8545C45.8321 21.8545 45.7491 21.9661 45.7491 22.1894C45.7491 22.2452 45.7491 22.329 45.7767 22.4127C45.8044 22.4965 45.8321 22.636 45.8874 22.8314L47.5188 27.8556H47.5464L49.1502 22.7477C49.2055 22.5802 49.2332 22.4685 49.2608 22.3848C49.2885 22.3011 49.2885 22.2452 49.2885 22.1894C49.2885 21.9661 49.2332 21.8545 49.0949 21.8545V21.5195H51.6389V21.8545C51.5559 21.8545 51.5282 21.8824 51.5006 21.9382C51.4729 21.994 51.4453 22.0778 51.4453 22.1336C51.4453 22.2452 51.5006 22.4685 51.5835 22.7477L53.215 27.8556H53.2426L54.8741 22.6639C54.957 22.4965 54.9847 22.329 54.9847 22.1894C54.9847 22.1057 54.957 22.0499 54.9017 21.994C54.8464 21.9382 54.7911 21.8824 54.7082 21.8824V21.5474H56.9479V21.8824C56.8373 21.8824 56.7544 21.9661 56.6991 22.1057C56.6438 22.2452 56.5885 22.4406 56.5055 22.636L54.321 29.5303C54.2657 29.7257 54.2104 29.8931 54.1551 30.0327C54.0998 30.1723 54.0998 30.3118 54.0998 30.3956C54.0998 30.4793 54.1275 30.563 54.1828 30.6189C54.2381 30.6747 54.2934 30.7305 54.404 30.7305V31.0654H52.026V30.7305C52.0813 30.7026 52.1366 30.6747 52.2195 30.6189C52.2748 30.563 52.3301 30.5072 52.3301 30.4235C52.3301 30.3397 52.3025 30.2281 52.2748 30.0885C52.2472 29.9769 52.1919 29.8094 52.1089 29.5861L50.3392 24.2549H50.3116L48.6525 29.4745C48.5142 29.949 48.4313 30.2281 48.4313 30.3676C48.4313 30.563 48.4866 30.6747 48.6248 30.7305V31.0654H46.2745V30.7305C46.3298 30.7305 46.3851 30.7026 46.468 30.6747C46.5233 30.6468 46.551 30.5909 46.551 30.5072C46.551 30.4235 46.5233 30.3118 46.4957 30.2002C46.468 30.0885 46.4127 29.9769 46.3851 29.8652L43.9518 22.4127C43.9241 22.2732 43.8688 22.1615 43.8135 22.0778C43.7582 21.994 43.7029 21.9382 43.5923 21.9103V21.5754H45.9427V21.8545H45.9703Z" fill="black"/>
<path d="M70.3036 22.1894C70.3036 21.9661 70.193 21.8545 69.9718 21.8545V21.5195H72.2945V21.8545C72.2116 21.8545 72.1563 21.8824 72.101 21.9382C72.0456 21.994 72.018 22.0778 72.018 22.1894V30.3956C72.018 30.5072 72.0456 30.5909 72.101 30.6468C72.1563 30.7026 72.2116 30.7305 72.2945 30.7305V31.0654H69.9718V30.7305C70.193 30.7305 70.3036 30.6189 70.3036 30.3956V26.9903H65.437V30.3956C65.437 30.5072 65.4646 30.5909 65.5199 30.6468C65.5752 30.7026 65.6305 30.7305 65.7135 30.7305V31.0654H63.4184V30.7305C63.612 30.7305 63.6949 30.6189 63.6949 30.3956V22.1894C63.6949 21.9661 63.612 21.8545 63.4184 21.8545V21.5195H65.7135V21.8545C65.6305 21.8545 65.5752 21.8824 65.5199 21.9382C65.4646 21.994 65.437 22.0778 65.437 22.1894V25.2597H70.3036V22.1894Z" fill="black"/>
<path d="M79.5393 30.7027C79.7882 30.7027 79.9264 30.591 79.9264 30.3677V22.1616C79.9264 21.9383 79.7882 21.8266 79.5393 21.8266V21.4917H82.0556V21.8266C81.8067 21.8266 81.6685 21.9383 81.6685 22.1616V30.3956C81.6685 30.6189 81.8067 30.7306 82.0556 30.7306V31.0655H79.5393V30.7027Z" fill="black"/>
<path d="M93.3653 30.3953C93.3653 30.6186 93.4759 30.7303 93.6971 30.7303V31.0652H91.3744V30.7303C91.4574 30.7303 91.5127 30.7024 91.568 30.6466C91.6233 30.5907 91.6509 30.507 91.6509 30.3953V23.1941H89.1623C89.0793 23.1941 88.9964 23.222 88.8858 23.2778C88.8028 23.3336 88.7475 23.4453 88.7475 23.6127H88.471V21.0728H88.7475C88.7475 21.2402 88.8028 21.3519 88.8858 21.4077C88.9687 21.4635 89.0517 21.4914 89.1623 21.4914H95.8816C95.9646 21.4914 96.0475 21.4635 96.1581 21.4077C96.2411 21.3519 96.2964 21.2402 96.2964 21.0728H96.5729V23.6127H96.2964C96.2964 23.4453 96.2411 23.3336 96.1581 23.2778C96.0752 23.222 95.9922 23.1941 95.8816 23.1941H93.393V30.3953H93.3653Z" fill="black"/>
<path d="M110.453 23.4733C110.453 23.3337 110.398 23.25 110.315 23.1662C110.232 23.1104 110.094 23.0546 109.873 23.0546H104.978V25.2875H107.937C108.131 25.2875 108.297 25.2596 108.407 25.1759C108.518 25.1201 108.573 24.9247 108.573 24.6735H108.85V27.4926H108.573C108.573 27.2135 108.518 27.046 108.407 26.9623C108.297 26.8785 108.131 26.8506 107.937 26.8506H104.978V29.3348H110.039C110.177 29.3348 110.315 29.2789 110.398 29.1952C110.481 29.1115 110.536 28.9998 110.536 28.8603H110.813V31.3444H110.536C110.536 31.177 110.481 31.0653 110.398 31.0374C110.315 31.0095 110.177 31.0095 110.039 31.0095H102.988V30.6745C103.07 30.6745 103.126 30.6466 103.181 30.5908C103.236 30.535 103.264 30.4513 103.264 30.3396V22.1335C103.264 22.0218 103.236 21.9381 103.181 21.8823C103.126 21.8265 103.07 21.7985 102.988 21.7985V21.4636H109.9C110.122 21.4636 110.26 21.4357 110.343 21.352C110.426 21.2682 110.481 21.1566 110.481 21.0449H110.758V23.4174H110.453V23.4733Z" fill="black"/>
<path d="M131.026 23.4736C131.026 23.334 130.971 23.2503 130.888 23.1666C130.805 23.1107 130.667 23.0549 130.446 23.0549H125.551V25.2879H128.51C128.704 25.2879 128.87 25.26 128.98 25.2041C129.091 25.1483 129.146 25.0367 129.146 24.8692H129.423V27.465H129.146C129.146 27.1859 129.091 27.0184 128.98 26.9347C128.87 26.851 128.704 26.823 128.51 26.823H125.551V30.3958C125.551 30.5074 125.607 30.5912 125.69 30.647C125.773 30.7028 125.883 30.7307 126.021 30.7307V31.0657H123.45V30.7307C123.699 30.7307 123.837 30.6191 123.837 30.3958V22.1896C123.837 21.9664 123.699 21.8547 123.45 21.8547V21.5198H130.446C130.667 21.5198 130.805 21.4918 130.888 21.4081C130.971 21.3244 131.026 21.2127 131.026 21.1011H131.303V23.4736H131.026Z" fill="black"/>
<path d="M142.115 21.436C142.668 21.436 143.221 21.5477 143.801 21.7431C144.382 21.9385 144.907 22.2455 145.377 22.6363C145.847 23.027 146.235 23.5294 146.539 24.1435C146.843 24.7576 146.981 25.4833 146.981 26.2927C146.981 27.1301 146.843 27.8558 146.539 28.4419C146.235 29.056 145.847 29.5584 145.377 29.9492C144.907 30.34 144.382 30.647 143.801 30.8145C143.221 30.9819 142.668 31.0936 142.115 31.0936C141.562 31.0936 140.981 31.0098 140.428 30.8145C139.847 30.647 139.322 30.34 138.852 29.9492C138.382 29.5584 137.994 29.056 137.69 28.4419C137.386 27.8279 137.248 27.1022 137.248 26.2927C137.248 25.4554 137.386 24.7297 137.69 24.1435C137.994 23.5294 138.382 23.027 138.852 22.6363C139.322 22.2455 139.847 21.9385 140.428 21.7431C140.981 21.5198 141.562 21.436 142.115 21.436ZM142.115 23.0828C141.727 23.0828 141.34 23.1666 140.953 23.3061C140.566 23.4457 140.234 23.669 139.93 23.9202C139.626 24.1993 139.377 24.5343 139.183 24.925C138.99 25.3158 138.907 25.7624 138.907 26.2927C138.907 26.7951 138.99 27.2417 139.183 27.6604C139.377 28.0512 139.626 28.3861 139.93 28.6652C140.234 28.9444 140.594 29.1397 140.953 29.2793C141.34 29.4189 141.727 29.5026 142.115 29.5026C142.502 29.5026 142.889 29.4189 143.276 29.2793C143.663 29.1397 143.995 28.9164 144.327 28.6652C144.631 28.3861 144.88 28.0512 145.073 27.6604C145.267 27.2696 145.35 26.823 145.35 26.2927C145.35 25.7903 145.267 25.3437 145.073 24.925C144.88 24.5343 144.631 24.1993 144.327 23.9202C144.023 23.6411 143.663 23.4457 143.276 23.3061C142.861 23.1666 142.502 23.0828 142.115 23.0828Z" fill="black"/>
<path d="M158.927 21.5195C159.425 21.5195 159.84 21.5754 160.255 21.687C160.642 21.7987 160.973 21.9382 161.278 22.1615C161.554 22.3848 161.775 22.6639 161.941 23.0268C162.08 23.3896 162.163 23.8083 162.163 24.3386C162.163 25.1202 161.969 25.7342 161.582 26.1529C161.195 26.5716 160.669 26.8507 160.006 26.9903L162.024 30.4235C162.107 30.5351 162.19 30.6188 162.273 30.6468C162.356 30.6747 162.467 30.6747 162.55 30.6747V31.0096H159.729V30.6747C159.812 30.6747 159.895 30.6468 159.95 30.6189C160.006 30.5909 160.061 30.5351 160.061 30.4793C160.061 30.4235 160.033 30.3397 160.006 30.2839C159.978 30.2002 159.895 30.0885 159.812 29.9769L158.153 27.1578H155.996V30.3956C155.996 30.5072 156.024 30.5909 156.107 30.6468C156.162 30.7026 156.3 30.7305 156.466 30.7305V31.0654H153.839V30.7305C154.144 30.7305 154.282 30.6189 154.282 30.3956V22.1894C154.282 21.9661 154.144 21.8545 153.839 21.8545V21.5195H158.927ZM158.54 25.7622C158.9 25.7622 159.204 25.7342 159.453 25.6505C159.702 25.5947 159.895 25.483 160.033 25.3714C160.172 25.2597 160.282 25.1202 160.338 24.9527C160.393 24.7852 160.42 24.6178 160.42 24.4224C160.42 24.227 160.393 24.0595 160.338 23.8921C160.282 23.7246 160.172 23.585 160.033 23.4734C159.895 23.3617 159.702 23.2501 159.453 23.1943C159.204 23.1384 158.9 23.0826 158.54 23.0826H155.913V25.7622H158.54Z" fill="black"/>
<path d="M173.472 30.3953C173.472 30.6186 173.582 30.7303 173.804 30.7303V31.0652H171.481V30.7303C171.564 30.7303 171.619 30.7024 171.674 30.6466C171.73 30.5907 171.757 30.507 171.757 30.3953V23.1941H169.269C169.186 23.1941 169.103 23.222 168.992 23.2778C168.909 23.3336 168.854 23.4453 168.854 23.6127H168.578V21.0728H168.854C168.854 21.2402 168.909 21.3519 168.992 21.4077C169.075 21.4635 169.158 21.4914 169.269 21.4914H175.988C176.071 21.4914 176.154 21.4635 176.265 21.4077C176.348 21.3519 176.403 21.2402 176.403 21.0728H176.679V23.6127H176.403C176.403 23.4453 176.348 23.3336 176.265 23.2778C176.182 23.222 176.099 23.1941 175.988 23.1941H173.499V30.3953H173.472Z" fill="black"/>
</svg>
