<svg width="134" height="44" viewBox="0 0 134 44" fill="none" xmlns="http://www.w3.org/2000/svg">
<path d="M19.5076 0.18042L0 38.2683H4.58767L19.9863 8.28422L35.3051 38.2683H39.7332L20.5049 0.18042H19.5076Z" fill="#010202"/>
<path d="M42.7651 38.2683V0.18042H51.3022C57.4856 0.18042 61.9536 0.622445 64.7461 1.54333C68.7354 2.83257 71.8869 5.07953 74.1209 8.28422C76.3549 11.4889 77.5118 15.283 77.5118 19.7032C77.5118 23.5341 76.6341 26.8861 74.839 29.7961C73.0438 32.7061 70.73 34.8426 67.8976 36.2055C65.0652 37.6052 61.0361 38.2683 55.8899 38.2683H42.7651ZM46.7145 34.6952H51.5017C57.2063 34.6952 61.1557 34.3637 63.3498 33.7007C66.4615 32.7798 68.8949 31.0854 70.6901 28.6542C72.4853 26.2231 73.3629 23.2762 73.3629 19.7769C73.3629 16.0933 72.4055 12.9623 70.4906 10.347C68.5758 7.73169 65.8631 5.96359 62.4323 5.00586C59.8393 4.26915 55.6106 3.9008 49.6666 3.9008H46.7544V34.6952H46.7145Z" fill="#010202"/>
<path d="M88.4823 28.7646H91.0354V36.7948C91.0354 38.3787 90.6764 39.5574 89.9982 40.2941C89.0807 41.3255 87.6844 41.8044 85.8094 41.8044C84.8121 41.8044 83.9744 41.6939 83.2962 41.4729C82.618 41.2518 82.0595 40.9203 81.5808 40.4415C81.1021 39.9994 80.7829 39.4469 80.5436 38.8207H83.376C83.6153 39.0786 83.9345 39.2996 84.3334 39.4101C84.7323 39.5574 85.1711 39.6311 85.7296 39.6311C86.4078 39.6311 86.9663 39.5206 87.3653 39.3364C87.7642 39.1522 88.0833 38.8944 88.2429 38.5629C88.4025 38.2682 88.4823 37.7156 88.4823 36.9421C88.0434 37.3473 87.5647 37.642 87.086 37.8261C86.6073 38.0103 86.0488 38.084 85.4105 38.084C84.0542 38.084 82.8973 37.642 81.9398 36.7211C80.9824 35.8002 80.5436 34.6583 80.5436 33.2586C80.5436 31.7851 81.0223 30.5696 82.0595 29.6487C82.977 28.8383 84.0542 28.4331 85.2908 28.4331C85.8892 28.4331 86.4477 28.5436 86.9663 28.7278C87.4849 28.912 88.0035 29.2435 88.5221 29.7223V28.7646H88.4823ZM85.8094 30.7169C85.0116 30.7169 84.3334 30.9748 83.8148 31.4536C83.2962 31.9693 83.0169 32.5955 83.0169 33.3322C83.0169 34.1058 83.2962 34.7688 83.8148 35.2477C84.3334 35.7634 85.0116 35.9844 85.8493 35.9844C86.6472 35.9844 87.2855 35.7265 87.8041 35.2477C88.3227 34.7688 88.562 34.1058 88.562 33.3322C88.562 32.5587 88.3227 31.8956 87.8041 31.4168C87.2855 30.9748 86.6472 30.7169 85.8094 30.7169Z" fill="#010202"/>
<path d="M92.9902 28.7647H95.1843V29.9434C95.4236 29.4646 95.7428 29.133 96.1417 28.8752C96.5406 28.6173 96.9794 28.5068 97.4182 28.5068C97.7374 28.5068 98.0964 28.5805 98.4555 28.7647L97.6576 30.7906C97.3385 30.6433 97.0991 30.5696 96.8996 30.5696C96.5007 30.5696 96.1816 30.7906 95.9023 31.2327C95.6231 31.6747 95.5034 32.5587 95.5034 33.8848V34.3268V38.1209H92.9503V28.7647H92.9902Z" fill="#010202"/>
<path d="M104.479 28.5068C105.437 28.5068 106.354 28.7278 107.192 29.1699C108.03 29.6119 108.708 30.2013 109.187 30.9748C109.665 31.7484 109.905 32.5587 109.905 33.4428C109.905 34.3268 109.665 35.174 109.187 35.9476C108.708 36.7211 108.07 37.3105 107.232 37.7525C106.394 38.1946 105.517 38.4156 104.519 38.4156C103.043 38.4156 101.806 37.9367 100.769 36.979C99.732 36.0213 99.2134 34.8425 99.2134 33.4796C99.2134 32.0062 99.8118 30.7906 100.969 29.7961C102.006 28.9489 103.163 28.5068 104.479 28.5068ZM104.519 30.7538C103.721 30.7538 103.083 31.0116 102.525 31.5273C102.006 32.043 101.727 32.7061 101.727 33.4796C101.727 34.29 102.006 34.953 102.525 35.4687C103.043 35.9844 103.721 36.2423 104.519 36.2423C105.317 36.2423 105.995 35.9844 106.514 35.4687C107.032 34.953 107.312 34.29 107.312 33.4796C107.312 32.6692 107.032 32.0062 106.514 31.5273C105.995 31.0116 105.357 30.7538 104.519 30.7538Z" fill="#010202"/>
<path d="M111.979 28.7646H114.572V33.2954C114.572 34.1795 114.652 34.8057 114.772 35.1372C114.891 35.4687 115.131 35.7634 115.41 35.9476C115.689 36.1317 116.048 36.2422 116.487 36.2422C116.926 36.2422 117.285 36.1317 117.564 35.9476C117.843 35.7634 118.083 35.4687 118.242 35.1372C118.362 34.8793 118.402 34.29 118.402 33.4059V28.7646H120.955V32.7429C120.955 34.4005 120.795 35.5055 120.516 36.0949C120.157 36.8316 119.678 37.3841 119 37.7893C118.322 38.1945 117.484 38.3787 116.447 38.3787C115.33 38.3787 114.413 38.1577 113.734 37.6788C113.056 37.2368 112.578 36.5738 112.298 35.7634C112.099 35.2109 111.979 34.1426 111.979 32.6692V28.7646V28.7646Z" fill="#010202"/>
<path d="M125.981 28.7647V29.7961C126.46 29.3541 126.939 29.0594 127.497 28.8384C128.016 28.6173 128.614 28.5068 129.213 28.5068C130.529 28.5068 131.686 28.9857 132.604 29.9066C133.521 30.8275 134 32.0062 134 33.4796C134 34.8794 133.521 36.0581 132.564 36.979C131.606 37.9367 130.449 38.3787 129.133 38.3787C128.535 38.3787 128.016 38.2682 127.497 38.0841C126.979 37.8999 126.5 37.5684 125.981 37.1263V41.5466H123.428V28.7647H125.981ZM128.694 30.717C127.896 30.717 127.218 30.9748 126.7 31.4905C126.181 32.0062 125.902 32.6692 125.902 33.4796C125.902 34.3268 126.181 34.9899 126.7 35.5056C127.218 36.0213 127.896 36.2791 128.694 36.2791C129.492 36.2791 130.13 36.0213 130.649 35.5056C131.168 34.9899 131.447 34.3268 131.447 33.5165C131.447 32.7061 131.168 32.043 130.649 31.5273C130.13 30.9748 129.492 30.717 128.694 30.717Z" fill="#010202"/>
<path d="M15.7577 25.0811L13.8827 28.7646H26.0101L24.1351 25.0811H15.7577Z" fill="#010202"/>
</svg>
